<?xml version="1.0" encoding="utf-8"?>
<!-- Generator: Adobe Illustrator 25.2.1, SVG Export Plug-In . SVG Version: 6.00 Build 0)  -->
<svg version="1.1" id="Layer_1" xmlns="http://www.w3.org/2000/svg" xmlns:xlink="http://www.w3.org/1999/xlink" x="0px" y="0px"
	 viewBox="0 0 459.4 489.9" style="enable-background:new 0 0 459.4 489.9;" xml:space="preserve">
<style type="text/css">
	.st0{fill:#FFFFFF;}
</style>
<path class="st0" d="M249.8,457.9c-7-8.3-13.5-16-20.2-24.1c-1.8,1.6-3.1,2.8-4.5,4c-7.9,6.6-15.7,13.2-23.6,19.6
	c-4.1,3.3-8.9,6-9.2,12.5l-1.2-0.1c-1.6-2.5-3.4-4.9-4.9-7.5c-6.3-10.8-12.4-21.8-18.9-32.6c-3-5-3.7-4.9-7.8-0.9
	c-3.5,3.4-7,6.8-10.5,10.3c-1.7,1.7-3,1.7-4.4-0.4c-13.3-20.4-31.6-36-49.1-52.5c-5.1-4.8-8.9-11.1-13.2-16.9
	c-1.8-2.4-3.3-5.2-5-7.6c-3.8-5.4-8.4-6.4-15.4-5.8c-25.2,2.5-40.9-7.2-43-32.4c-0.1-1.4-0.2-2.8-0.1-4.1c0-12.5,3.5-17.1,15.6-20.3
	c0-0.5,0.2-1.2,0-1.6c-8.4-15.2-11.5-32-13.3-48.8c-3.8-34-1.3-67.5,9.2-100.2c16-50.1,48.7-84.9,96.3-106.5
	c37-16.8,75.7-24.3,116.1-21.2c32.3,2.4,62.5,12.8,91.4,27.1c26.4,13,51,28.6,70.6,51c19,21.6,30.2,46.8,34.2,75.4
	c5.7,40.7-2.5,79.4-17,117.1c-0.8,2-1.5,4-2.2,6c-0.1,0.5-0.1,1.1,0,1.6c0.5,0.3,0.9,0.5,1.5,0.7c10.5,1.8,14.7,6.3,15.2,16.7
	c0.3,4,0,8-0.7,11.9c-3.7,18-12.5,26-30.9,27.7c-4.7,0.5-9.4,0.2-13.9-0.9c-3.9-1-5.9-0.1-8.1,2.9c-8.4,11.7-17,23.2-25.5,34.8
	c-1.5,2-3.1,3.8-4.5,5.8c-2.8,3.7-5.9,5.5-10.6,2.7c-1.1-0.7-3.3-0.3-4.7,0.2c-11.3,5-21.9,10.9-27.7,22.7c-1.7,3.4-4.4,6.2-6.6,9.3
	c-1.7,2.3-3.1,2.1-4.5-0.3c-1.9-3.5-3.9-6.9-5.7-10.5c-1.3-2.7-2.9-3.7-5.8-2.2c-5.6,2.8-11.7,4.8-16.7,8.5
	c-4.3,3.1-7.7,7.7-10.8,12.1C255.9,446,253.2,451.7,249.8,457.9z M392.5,336.8c1.3-4.3,1.5-8.6,3.7-11.6s6.2-4.6,9.5-6.8
	c-6.1-6.2-6.9-8.6-5.2-14c4.3-13.2,8.9-26.4,12.6-39.8c6.6-23.8,12.3-47.7,11.7-72.7c-1-41.2-19.5-74.1-49.2-101
	c-19.4-17.5-42.6-29.2-67-38.2c-35.7-13.1-72.2-18.8-110.1-13.4c-25.4,3.7-48.8,13.6-72,24C83.6,82.5,58.4,116,47,160.7
	c-6.7,26.2-9,52.8-8.3,79.6c0.5,21.9,2.8,43.4,18.6,60.9c3.9,4.3,2,9.4-3.6,11.7c-3.2,1.3-6.4,2.3-9.7,3.5l-0.2,1.2
	c2.4,0.9,4.8,2.1,7.3,2.8c4.4,1.4,5.9,3.9,4.4,8.3c-0.6,1.7-1.3,3.3-2.3,5.6c2.5,0.3,4.4,0.5,6.3,0.8c5.9,1,11.8,1.7,17.6,3.1
	c2.2,0.5,4.9,2,6,3.8c3.8,6.2,7,12.8,10.5,19.2c2.1,3.8,4,7.8,6.9,11.1c3.6,4.1,7.9,7.6,12.1,11.2c3.4,2.8,7.2,5.2,10.6,7.9
	c3.1,2.4,6.7,4.5,8.9,7.6c4.9,6.6,9.3,13.7,13.7,20.7c1.8,2.8,3.3,3.3,5.5,0.6c2.3-2.9,4.8-5.6,7.1-8.5c2.1-2.7,4.6-3.3,7.2-1.3
	c3.3,2.4,7.1,4.7,9.2,8.1c5.3,8.7,10,17.8,14.5,27c2.6,5.2,3.1,5.6,7.2,1.7c5-4.7,9.8-9.8,15-14.1c5.2-4.3,10.6-8.2,16.3-11.7
	c4.5-2.8,7.5-1.6,10.6,2.7c2,2.7,3.8,5.6,5.9,8.2c2.8,3.4,3.8,3.3,5.8-0.6c4.4-8.3,10.7-14.5,19.7-17.6c7.2-2.5,14.5-4.9,21.9-6.9
	c2.6-0.7,5.5-0.6,8,0.4c2.9,1.3,4.6,0.5,6.5-1.2c9.1-7.7,18.2-15.4,27.4-23c6.1-5.1,8-4.7,12.1,2.5c3.6-3.7,7.4-7.1,10.4-11
	c8.3-11.4,16.3-23,24.2-34.6c2.6-3.8,5.4-5.8,10-3.6C391.2,336.6,391.9,336.7,392.5,336.8z"/>
<path class="st0" d="M342.8,254.4c0.3,10.6-3.1,21.1-9.5,30.6c-8.3,12.4-20,17.9-34.7,17.8c-4.4-0.1-8.9,0.2-13.2,1
	c-9.9,2-16.2,8.2-17.6,18.1c-1,6.6-0.7,13.4-0.8,20.1c0,5.7,0.7,11.3,0.3,17c-0.5,7.9-4,14.2-11.8,17.1c-7.8,2.8-15.1,1.8-21.3-4
	c-4.6-4.3-4.6-4.2-9.3,0.2c-5.8,5.3-12.4,7.1-19.9,4.6c-7.2-2.4-11.6-7.4-12.7-14.8c-0.5-4.2-0.7-8.5-0.5-12.8
	c0.1-7.3,0.7-14.7,0.4-22c-0.6-15-9.6-23.5-24.5-24.2c-2.3-0.1-4.6-0.1-6.9-0.1c-18.3,0.7-30.5-8.6-38.4-24.1
	c-9-17.8-7.4-35.8,0.3-53.7c2.4-5.6,7.1-9.1,12.8-11.1c19.8-7.1,39.5-5.3,59,0.7c3.2,1,6.2,3.5,8.4,6.1c4.4,5.1,8.3,10.6,12.3,16
	c1.5,2.1,2.8,4.4,4.3,6.5c5.5,7.2,11.2,7.7,17.8,1.5c1.6-1.6,3-3.4,4.3-5.4c17.4-26.5,19.9-26.6,51-29.8c10.6-1.1,21,0.8,31.1,4.4
	c6.3,2.2,10.9,6.2,13.5,12.3C341,235.1,343,244.7,342.8,254.4z M282.2,284.5c13.4-0.1,29.4-12.5,33.1-24.6c0.9-3.1-0.9-3.9-3.2-4.3
	c-8.3-1.4-16.5-3.1-24.9-3.7c-6.5-0.4-13.4,0.3-18,6c-3.5,4.4-6.6,9.2-10,13.7c-1.6,2.1-1.1,3.6,0.9,4.9
	C267.1,281.2,274.7,284.3,282.2,284.5L282.2,284.5z M170.2,251.9c-5.1,0.7-10.7,1.3-16.3,2.3c-12.7,2.3-12.9,2.8-5.7,13.4
	c12.5,18.5,30.4,22,49.2,10c3.1-2,3.9-3.7,1.3-6.8c-2.8-3.4-4.9-7.5-7.9-10.6c-2.6-2.8-5.8-5.1-9.3-6.7
	C178.3,252.1,174.4,252.4,170.2,251.9z"/>
<path class="st0" d="M286.8,288.1c-8.2-0.3-16.4-3.6-24-8.7c-2.2-1.5-2.7-3.1-1-5.4c3.7-4.9,7-10.1,10.9-14.9c5-6.2,12.5-7,19.6-6.6
	c9.1,0.5,18.1,2.5,27.1,4c2.4,0.4,4.5,1.3,3.4,4.7C318.9,274.5,301.4,287.9,286.8,288.1z"/>
<path class="st0" d="M164.9,252.5c4.6,0.5,8.8,0.3,12.4,1.7c3.8,1.7,7.3,4.2,10.1,7.3c3.3,3.5,5.5,7.9,8.6,11.6
	c2.9,3.4,2,5.2-1.4,7.4c-20.5,13.1-40,9.2-53.6-10.9c-7.8-11.6-7.7-12.1,6.2-14.6C153.2,253.8,159.4,253.2,164.9,252.5z"/>
</svg>
