<?xml version="1.0" encoding="utf-8"?>
<!-- Generator: Adobe Illustrator 25.2.1, SVG Export Plug-In . SVG Version: 6.00 Build 0)  -->
<svg version="1.1" id="Layer_1" xmlns="http://www.w3.org/2000/svg" xmlns:xlink="http://www.w3.org/1999/xlink" x="0px" y="0px"
	 viewBox="0 0 64 64" style="enable-background:new 0 0 64 64;" xml:space="preserve">
<style type="text/css">
	.st0{fill:#FFFFFF;stroke:#FFFFFF;stroke-miterlimit:10;}
</style>
<g id="SVGRepo_bgCarrier">
</g>
<g id="SVGRepo_tracerCarrier">
</g>
<g id="SVGRepo_iconCarrier">
	<path class="st0" d="M10.3,5.7h43.5c2.9,0,5.3,2.3,5.3,5.3v42c0,2.9-2.3,5.3-5.3,5.3H10.3c-2.9,0-5.3-2.3-5.3-5.3V11
		C5,8.1,7.3,5.7,10.3,5.7z M9.3,62.4h45.5c4.7,0,8.5-3.8,8.5-8.5V10.1c0-4.7-3.8-8.5-8.5-8.5H9.3c-4.7,0-8.5,3.8-8.5,8.5V54
		C0.8,58.6,4.6,62.4,9.3,62.4z M42.9,26.5c-2,0-2.8,1-2.8,1.9s0.4,1.6,3.2,3c4.1,2,5.3,3.9,5.3,6.7c0,4.1-3.1,6.3-7.5,6.3
		c-1.9,0.1-3.7-0.3-5.3-1.1c-0.2-0.1-0.2-0.2-0.2-0.4v-3.8c0-0.2,0.1-0.3,0.3-0.2c1.6,1,3.3,1.6,5.2,1.6c2,0,2.9-0.9,2.9-2
		c0-0.9-0.6-1.8-3.2-3.1c-3.7-1.8-5.2-3.6-5.2-6.6c0-3.3,2.7-6.1,7.1-6.1c1.6-0.1,3.1,0.2,4.7,0.8c0.2,0.1,0.2,0.3,0.2,0.6v3.6
		c0,0.2-0.1,0.3-0.3,0.2C46,26.9,44.5,26.5,42.9,26.5L42.9,26.5z M20.5,29.7c0.6,0,1.1,0,2.1,0c3,0,5.9-1.1,5.9-5.2c0-3.3-2-5-5.5-5
		c-1,0-2,0-2.4,0.1L20.5,29.7z M15.9,15.9c0-0.2,0.3-0.3,0.6-0.3c1.7-0.1,4.1-0.1,6.7-0.1c7.2,0,10,3.9,10,9c0,6.6-4.8,9.5-10.7,9.5
		c-1,0-1.3,0-2,0v10c0,0.2-0.1,0.3-0.3,0.3h-4c-0.2,0-0.3-0.1-0.3-0.3L15.9,15.9L15.9,15.9z"/>
</g>
</svg>
