<?xml version="1.0" encoding="utf-8"?>
<!-- Generator: Adobe Illustrator 25.2.1, SVG Export Plug-In . SVG Version: 6.00 Build 0)  -->
<svg version="1.1" id="Layer_1" xmlns="http://www.w3.org/2000/svg" xmlns:xlink="http://www.w3.org/1999/xlink" x="0px" y="0px"
	 viewBox="0 0 800 800" style="enable-background:new 0 0 800 800;" xml:space="preserve">
<style type="text/css">
	.st0{fill:#FFFFFF;}
</style>
<g id="_x32_069a460dcf28295e231f3111e037552">
	<path class="st0" d="M666.1,0.8H133.9C60.7,0.8,0.8,60.7,0.8,133.9v532.3c0,73.2,59.9,133.1,133.1,133.1h532.3
		c73.2,0,133.1-59.9,133.1-133.1V133.9C799.2,60.7,739.3,0.8,666.1,0.8z M383.3,407.1c-27.7,27.7-71.3,40.7-120.5,40.7
		c-13,0-24.9-0.6-33.9-2.3v143.7h-69V213.1c24.9-4.5,59.4-7.9,106.3-7.9c50.9,0,88.2,10.7,112.6,31.1c22.6,18.7,37.3,48.6,37.3,84.3
		C416.1,356.7,404.8,386.7,383.3,407.1z M528.1,594.9c-33.4,0-63.3-7.9-83.7-19.2l13.6-50.3c15.8,9.6,45.8,19.8,70.7,19.8
		c30.5,0,44.1-12.4,44.1-30.5c0-18.7-11.3-28.3-45.2-40.2c-53.7-18.7-76.4-48.1-75.8-80.3c0-48.6,40.2-86.5,104.1-86.5
		c30.5,0,57.1,7.9,73,16.4l-13.6,49.2c-11.9-6.8-33.9-15.8-58.3-15.8c-24.9,0-38.5,11.9-38.5,28.8c0,17.5,13,26,48.1,38.5
		c49.8,18.1,73,43.5,73.5,84.3C640.1,558.7,601.1,594.9,528.1,594.9z M346.6,323.4c0,44.7-31.7,70.1-83.7,70.1
		c-14.1,0-25.5-0.6-33.9-2.8v-129c7.4-1.7,20.9-3.4,40.2-3.4C317.2,258.3,346.6,280.9,346.6,323.4z"/>
</g>
</svg>
